Coordinates
version=1
nRows=30
nColumns=23
inDegrees=yes

Units are S.I. units (second, meters, Newtons, ...)
If the header above contains a line with 'inDegrees', this indicates whether rotational values are in degrees (yes) or radians (no).

endheader
time	pelvis_tilt	pelvis_list	pelvis_rotation	pelvis_tx	pelvis_ty	pelvis_tz	hip_flexion_r	hip_adduction_r	hip_rotation_r	knee_angle_r	knee_angle_r_beta	ankle_angle_r	subtalar_angle_r	mtp_angle_r	hip_flexion_l	hip_adduction_l	hip_rotation_l	knee_angle_l	knee_angle_l_beta	ankle_angle_l	subtalar_angle_l	mtp_angle_l
     22.50000000	    -19.90845136	     -1.57798304	     -4.64875126	      2.24699955	      0.99528198	      1.04284819	     41.30548702	      3.94779671	     -6.27933573	     47.69937913	      0.83251122	     23.14279854	    -11.37812163	      0.00000000	     36.35778244	    -13.32336688	     -4.65544247	    119.74040501	      2.08986432	     -6.51818438	    -14.93805567	      0.00000000
     22.50666667	    -20.01842740	     -1.67772241	     -4.23034624	      2.24544459	      0.99590639	      1.04216263	     39.34422343	      3.73176564	     -6.34230379	     47.35647525	      0.82652642	     24.56499421	    -11.11278649	      0.00000000	     39.39435777	    -13.10228220	     -3.71740556	    120.05628853	      2.09537752	     -5.82242324	    -14.14233952	      0.00000000
     22.51333333	    -20.07902411	     -1.74821360	     -3.70579249	      2.24439773	      0.99744913	      1.04125120	     37.09042149	      3.37304327	     -6.64743510	     46.59105438	      0.81316730	     25.56397071	    -10.49585038	      0.00000000	     42.28990949	    -12.67997778	     -2.86400567	    119.91889059	      2.09297948	     -5.15713151	    -13.33065368	      0.00000000
     22.52000000	    -20.01623046	     -1.82602156	     -3.14550566	      2.24405072	      0.99996749	      1.04019853	     34.45393405	      2.87380591	     -7.39149146	     45.39795253	      0.79234375	     26.12359253	     -8.97939948	      0.00000000	     44.86798005	    -12.16727084	     -2.16948907	    119.33037580	      2.08270796	     -4.42074886	    -12.37651959	      0.00000000
     22.52666667	    -19.64867866	     -1.65075821	     -2.54044193	      2.24444875	      1.00361228	      1.03888468	     31.36141114	      2.00210553	     -8.40012015	     43.99895108	      0.76792656	     26.57994450	     -6.89208402	      0.00000000	     46.81603449	    -11.30326529	     -1.85037969	    118.22569569	      2.06342765	     -3.81882962	    -11.80598994	      0.00000000
     22.53333333	    -19.28857582	     -1.48737907	     -1.88393300	      2.24529376	      1.00792363	      1.03753117	     28.09724439	      1.21389941	     -9.48405358	     42.18455077	      0.73625930	     26.29459125	     -5.18963735	      0.00000000	     48.57946148	    -10.38922545	     -1.61185887	    116.73659402	      2.03743792	     -3.26908204	    -11.39647707	      0.00000000
     22.54000000	    -18.96696655	     -1.16747212	     -1.21365206	      2.24656433	      1.01265676	      1.03622932	     24.81607190	      0.30642059	    -10.72183407	     40.21210031	      0.70183355	     25.55776421	     -3.25572658	      0.00000000	     50.12262458	     -9.31043057	     -1.60538296	    114.86419498	      2.00475839	     -2.70312622	    -11.08675905	      0.00000000
     22.54666667	    -18.61929486	     -0.84998349	     -0.57834444	      2.24827403	      1.01790403	      1.03503821	     21.41242463	     -0.45489636	    -11.95082533	     37.93573508	      0.66210348	     24.07571385	     -1.63792417	      0.00000000	     51.38897381	     -8.27952652	     -1.70928940	    112.66216943	      1.96632580	     -2.11545406	    -10.83843522	      0.00000000
     22.55333333	    -18.34570602	     -0.42348892	      0.05017711	      2.25033880	      1.02329454	      1.03386791	     18.09115090	     -1.30672548	    -13.43822518	     35.58967687	      0.62115704	     22.03169673	      0.17832707	      0.00000000	     52.48539852	     -7.15984665	     -1.97357188	    110.15230059	      1.92252032	     -1.48710790	    -10.61896223	      0.00000000
     22.56000000	    -18.20340380	     -0.03254594	      0.61174915	      2.25257508	      1.02872166	      1.03296225	     14.92125768	     -1.87370634	    -14.63085982	     33.04291747	      0.57670770	     19.16086080	      1.20401770	      0.00000000	     53.52065721	     -6.14173790	     -2.27182835	    107.39555361	      1.87440601	     -0.92049777	    -10.56033826	      0.00000000
     22.56666667	    -18.08161221	      0.44203526	      1.09390138	      2.25506420	      1.03425921	      1.03223636	     11.85294335	     -2.45287632	    -15.88232791	     30.50491452	      0.53241120	     15.81392309	      2.22086423	      0.00000000	     54.32912572	     -5.16982076	     -2.74124275	    104.35950447	      1.82141696	     -0.33551688	    -10.53198035	      0.00000000
     22.57333333	    -18.07604892	      0.94700612	      1.51707032	      2.25764647	      1.03963217	      1.03169650	      9.03026113	     -2.97314097	    -17.09521441	     28.03192061	      0.48924931	     11.96553141	      2.90776906	      0.00000000	     55.07332318	     -4.23592422	     -3.28623134	    101.10508407	      1.76461661	      0.16489353	    -10.64807068	      0.00000000
     22.58000000	    -18.15679620	      1.47538914	      1.88458369	      2.26027412	      1.04483062	      1.03129805	      6.44805896	     -3.45012126	    -18.26674398	     25.68884322	      0.44835490	      7.74930288	      3.25606038	      0.00000000	     55.72255023	     -3.34987461	     -3.89626626	     97.62740865	      1.70391972	      0.55746038	    -10.95547222	      0.00000000
     22.58666667	    -18.25811131	      2.04548179	      2.14146119	      2.26291058	      1.04991498	      1.03112827	      4.08387521	     -3.92037487	    -19.31938462	     23.56512925	      0.41128909	      3.28742464	      3.22468477	      0.00000000	     56.19579377	     -2.55612234	     -4.62308649	     93.93032134	      1.63939337	      0.85773495	    -11.41795371	      0.00000000
     22.59333333	    -18.44932341	      2.63427797	      2.34863726	      2.26548584	      1.05470045	      1.03100465	      2.03058670	     -4.42234688	    -20.37033220	     21.76719556	      0.37990923	     -1.27076812	      2.90459216	      0.00000000	     56.60400808	     -1.79256165	     -5.39862147	     90.02185408	      1.57117775	      1.04493269	    -12.05951199	      0.00000000
     22.60000000	    -18.64747727	      3.22320517	      2.48284104	      2.26796054	      1.05927477	      1.03101063	      0.22353704	     -4.94459777	    -21.37276645	     20.35557735	      0.35527185	     -5.82330056	      2.20261171	      0.00000000	     56.85316638	     -1.11477048	     -6.23080090	     85.91073920	      1.49942526	      1.13925167	    -12.82309176	      0.00000000
     22.60666667	    -18.97660086	      3.77152934	      2.61466301	      2.27016026	      1.06336755	      1.03091833	     -1.14624816	     -5.60521111	    -22.82159533	     19.59151529	      0.34193645	    -10.00360715	      1.64273791	      0.00000000	     57.11927570	     -0.48234932	     -7.06612228	     81.62192350	      1.42457131	      1.23274208	    -13.53968172	      0.00000000
     22.61333333	    -19.12766016	      4.29738181	      2.68722693	      2.27224551	      1.06743624	      1.03080807	     -2.47968783	     -6.26074345	    -24.07088431	     19.25994876	      0.33614952	    -13.86734457	      0.84251704	      0.00000000	     57.03276543	      0.11334553	     -7.87776192	     77.12316789	      1.34605321	      1.24271556	    -14.38093904	      0.00000000
     22.62000000	    -19.59392101	      4.65010466	      2.66618143	      2.27403037	      1.07063627	      1.03081132	     -3.18680912	     -6.88696015	    -25.38795753	     19.54844773	      0.34118478	    -17.12552884	      0.16102154	      0.00000000	     57.17769442	      0.40488060	     -8.76260332	     72.54057864	      1.26607194	      1.56489798	    -14.62704134	      0.00000000
     22.62666667	    -19.41751344	      5.09428371	      2.70905559	      2.27576343	      1.07434299	      1.03047328	     -4.44907998	     -7.62694312	    -26.59597815	     20.23434400	      0.35315592	    -19.63842775	     -1.04955830	      0.00000000	     56.45028994	      0.94028921	     -9.55732537	     67.67379509	      1.18113054	      1.43928764	    -15.48873971	      0.00000000
     22.63333333	    -19.52417054	      5.33387820	      2.71609736	      2.27707401	      1.07710486	      1.03003044	     -5.13767716	     -8.28397985	    -27.60691439	     21.53388178	      0.37583714	    -21.50958114	     -2.09907410	      0.00000000	     55.95425285	      1.24072997	    -10.36043733	     62.77336824	      1.09560196	      1.68773339	    -15.46223466	      0.00000000
     22.64000000	    -19.49694458	      5.50429336	      2.69323258	      2.27814841	      1.07953058	      1.02938479	     -5.79336159	     -8.91039715	    -28.24562444	     23.24203873	      0.40565010	    -22.58755860	     -3.19575865	      0.00000000	     55.19337846	      1.50084048	    -11.16443732	     57.75334730	      1.00798606	      1.98587295	    -15.09824113	      0.00000000
     22.64666667	    -19.28819542	      5.64876754	      2.61571738	      2.27904273	      1.08172012	      1.02859775	     -6.44807262	     -9.49615923	    -28.30510439	     25.32236754	      0.44195869	    -22.97561992	     -4.29468859	      0.00000000	     54.10764604	      1.72124085	    -12.06075284	     52.62912520	      0.91855152	      2.30888293	    -14.32289292	      0.00000000
     22.65333333	    -19.07919509	      5.68352669	      2.55861608	      2.27959620	      1.08333686	      1.02757165	     -6.89849489	     -9.95526894	    -27.90098721	     27.77189399	      0.48471099	    -22.94650953	     -5.59525018	      0.00000000	     52.94936244	      1.92361765	    -12.92339438	     47.49508250	      0.82894557	      2.73901395	    -12.93133084	      0.00000000
     22.66000000	    -18.75410908	      5.65540499	      2.43495577	      2.27999877	      1.08458524	      1.02651962	     -7.26795695	    -10.25990495	    -26.86118370	     30.47797025	      0.53194093	    -22.65359614	     -7.00080563	      0.00000000	     51.58287761	      2.05927272	    -13.86856120	     42.39341227	      0.73990463	      3.24413066	    -10.93191430	      0.00000000
     22.66666667	    -18.26776618	      5.49263093	      2.23098813	      2.28026940	      1.08549893	      1.02558040	     -7.60364179	    -10.29393661	    -25.25832136	     33.37724456	      0.58254281	    -22.41030395	     -8.73771107	      0.00000000	     50.03262285	      1.96060139	    -15.11854117	     37.53976577	      0.65519251	      4.06212861	     -7.68451256	      0.00000000
     22.67333333	    -17.83842062	      5.27953349	      2.06093491	      2.28021601	      1.08579010	      1.02446273	     -7.66517490	    -10.26003689	    -23.53936155	     36.61906029	      0.63912317	    -22.16716844	    -10.38852424	      0.00000000	     48.54194852	      1.99768649	    -16.11408805	     32.83443244	      0.57306895	      4.64296701	     -4.56988643	      0.00000000
     22.68000000	    -17.39760330	      5.02042057	      1.92222086	      2.27993725	      1.08555968	      1.02329024	     -7.56630828	    -10.13490770	    -21.79200609	     40.10850768	      0.70002552	    -22.11778077	    -11.97795259	      0.00000000	     47.07469207	      2.10794262	    -16.88468974	     28.41399848	      0.49591783	      5.10625992	     -1.45594769	      0.00000000
     22.68666667	    -17.10663756	      4.56267938	      2.01388706	      2.27934500	      1.08464633	      1.02180112	     -7.20842204	     -9.75236708	    -20.31489510	     43.76649369	      0.76386942	    -22.05989730	    -13.10432804	      0.00000000	     45.83964936	      2.42198935	    -16.58765913	     24.27014021	      0.42359386	      5.48533497	      0.77792261	      0.00000000
     22.69333333	    -16.57784443	      4.49139610	      1.81835911	      2.27878522	      1.08354204	      1.02087358	     -6.88078538	     -9.80501948	    -18.68890772	     47.71527412	      0.83278864	    -22.65446209	    -14.73138993	      0.00000000	     44.31573764	      2.70875065	    -17.08561107	     20.51257147	      0.35801191	      5.22797809	      3.14624443	      0.00000000
